<svg xmlns="http://www.w3.org/2000/svg" viewBox="0 0 64 64">
  <defs>
    <linearGradient id="bg" x1="8" y1="6" x2="58" y2="60" gradientUnits="userSpaceOnUse">
      <stop offset="0" stop-color="#0ea5e9"/>
      <stop offset="0.52" stop-color="#4f46e5"/>
      <stop offset="1" stop-color="#7c3aed"/>
    </linearGradient>
    <linearGradient id="shine" x1="18" y1="12" x2="42" y2="48" gradientUnits="userSpaceOnUse">
      <stop offset="0" stop-color="#ffffff" stop-opacity="0.9"/>
      <stop offset="1" stop-color="#ffffff" stop-opacity="0"/>
    </linearGradient>
    <filter id="shadow" x="-20%" y="-20%" width="140%" height="140%">
      <feDropShadow dx="0" dy="4" stdDeviation="4" flood-color="#111827" flood-opacity="0.22"/>
    </filter>
  </defs>

  <rect width="64" height="64" rx="16" fill="#f8fafc"/>
  <circle cx="32" cy="32" r="24" fill="url(#bg)" filter="url(#shadow)"/>
  <path d="M18 28c5-10 20-13 31-5" fill="none" stroke="url(#shine)" stroke-width="7" stroke-linecap="round"/>

  <path d="M17 42 26.2 20h5.6L41 42h-6l-1.7-4.5H24.6L23 42h-6Zm9.2-9h5.6L29 25.6 26.2 33Z" fill="#fff"/>
  <path d="M40.3 42V20h9.4c2.6 0 4.6.6 6 1.8 1.4 1.2 2.1 2.8 2.1 4.8 0 1.2-.3 2.3-1 3.1-.6.8-1.5 1.5-2.6 1.9 1.3.4 2.3 1 3 2 .7.9 1.1 2.1 1.1 3.5 0 2.2-.7 3.8-2.2 4.9-1.5 1.2-3.6 1.8-6.4 1.8h-9.4Zm5.4-13h3.4c2.1 0 3.2-.8 3.2-2.3 0-1.6-1.1-2.4-3.2-2.4h-3.4V29Zm0 8.7h3.8c2.2 0 3.3-.8 3.3-2.5 0-1.7-1.1-2.5-3.3-2.5h-3.8v5Z" fill="#fff" opacity="0.95"/>

  <path d="M11 47c8.2 7.6 24.4 9.4 38 1.4" fill="none" stroke="#22c55e" stroke-width="4" stroke-linecap="round" opacity="0.9"/>
</svg>
